<svg width="169" height="46" viewBox="0 0 169 46" fill="none" xmlns="http://www.w3.org/2000/svg">
<path d="M74.2576 5.50797C71.3897 2.34905 67.4976 0.543945 63.4006 0.543945H40.9697V45.6715H56.3333V17.4668H61.2497C62.5812 17.4668 63.9127 18.0309 64.8345 19.1591L70.1606 25.0256C71.0824 26.041 71.697 27.5076 71.697 28.9743V45.6715H87.0606V26.6051C87.0606 22.0923 85.4218 17.8052 82.5539 14.6463L74.2576 5.50797ZM153.636 0.543945V17.2411C153.636 18.7078 153.124 20.1744 152.1 21.1898L146.774 27.0564C145.852 28.0717 144.521 28.7487 143.189 28.7487H135.815C137.351 26.041 138.273 22.8821 138.273 19.6103V0.543945H122.909V17.2411C122.909 18.7078 122.397 20.1744 121.373 21.1898L116.047 27.0564C115.125 28.0717 113.793 28.7487 112.462 28.7487H107.545V0.543945H92.1818V45.6715H114.613C118.71 45.6715 122.602 43.8664 125.47 40.7075L130.591 35.0665V45.6715H145.34C149.437 45.6715 153.329 43.8664 156.197 40.7075L164.493 31.5691C167.361 28.4102 169 24.1231 169 19.6103V0.543945H153.636ZM0 17.4668H10.2424V45.6715H25.6061V17.4668H35.8485V0.543945H0V17.4668Z" fill="#E53F37"/>
</svg>
